<svg width="259" height="23" viewBox="0 0 259 23" fill="none" xmlns="http://www.w3.org/2000/svg">
<rect x="5" y="5" width="13" height="13" fill="#20BF6B"/>
<path d="M11.69 22.4201C10.01 22.4201 8.46002 22.1501 7.04002 21.6101C5.62002 21.0701 4.38002 20.3101 3.32002 19.3301C2.28002 18.3301 1.47002 17.1701 0.89002 15.8501C0.31002 14.5301 0.0200195 13.0801 0.0200195 11.5001C0.0200195 9.92008 0.31002 8.47008 0.89002 7.15008C1.47002 5.83008 2.28002 4.68008 3.32002 3.70008C4.38002 2.70008 5.62002 1.93008 7.04002 1.39008C8.46002 0.850078 10.01 0.580078 11.69 0.580078C13.39 0.580078 14.94 0.850078 16.34 1.39008C17.76 1.93008 18.99 2.70008 20.03 3.70008C21.07 4.68008 21.88 5.83008 22.46 7.15008C23.06 8.47008 23.36 9.92008 23.36 11.5001C23.36 13.0801 23.06 14.5401 22.46 15.8801C21.88 17.2001 21.07 18.3501 20.03 19.3301C18.99 20.3101 17.76 21.0701 16.34 21.6101C14.94 22.1501 13.39 22.4201 11.69 22.4201ZM11.69 17.5001C12.49 17.5001 13.23 17.3601 13.91 17.0801C14.61 16.8001 15.21 16.4001 15.71 15.8801C16.23 15.3401 16.63 14.7001 16.91 13.9601C17.21 13.2201 17.36 12.4001 17.36 11.5001C17.36 10.5801 17.21 9.76008 16.91 9.04008C16.63 8.30008 16.23 7.67008 15.71 7.15008C15.21 6.61008 14.61 6.20008 13.91 5.92008C13.23 5.64008 12.49 5.50008 11.69 5.50008C10.89 5.50008 10.14 5.64008 9.44002 5.92008C8.76002 6.20008 8.16002 6.61008 7.64002 7.15008C7.14002 7.67008 6.74002 8.30008 6.44002 9.04008C6.16002 9.76008 6.02002 10.5801 6.02002 11.5001C6.02002 12.4001 6.16002 13.2201 6.44002 13.9601C6.74002 14.7001 7.14002 15.3401 7.64002 15.8801C8.16002 16.4001 8.76002 16.8001 9.44002 17.0801C10.14 17.3601 10.89 17.5001 11.69 17.5001Z" fill="#004288"/>
<path d="M26.4711 22.0001V1.00008H36.0711C37.9911 1.00008 39.6411 1.31008 41.0211 1.93008C42.4211 2.55008 43.5011 3.45008 44.2611 4.63008C45.0211 5.79008 45.4011 7.17008 45.4011 8.77008C45.4011 10.3501 45.0211 11.7201 44.2611 12.8801C43.5011 14.0201 42.4211 14.9001 41.0211 15.5201C39.6411 16.1201 37.9911 16.4201 36.0711 16.4201H29.7711L32.4111 13.9301V22.0001H26.4711ZM39.4611 22.0001L34.2411 14.3501H40.5711L45.8211 22.0001H39.4611ZM32.4111 14.5601L29.7711 11.8301H35.7111C36.9511 11.8301 37.8711 11.5601 38.4711 11.0201C39.0911 10.4801 39.4011 9.73008 39.4011 8.77008C39.4011 7.79008 39.0911 7.03008 38.4711 6.49008C37.8711 5.95008 36.9511 5.68008 35.7111 5.68008H29.7711L32.4111 2.95008V14.5601Z" fill="#004288"/>
<path d="M48.6781 22.0001V1.00008H54.6181V22.0001H48.6781Z" fill="#004288"/>
<path d="M69.3442 22.4201C67.6842 22.4201 66.1442 22.1601 64.7242 21.6401C63.3042 21.1001 62.0742 20.3401 61.0342 19.3601C60.0142 18.3801 59.2142 17.2301 58.6342 15.9101C58.0542 14.5701 57.7642 13.1001 57.7642 11.5001C57.7642 9.90008 58.0542 8.44008 58.6342 7.12008C59.2142 5.78008 60.0242 4.62008 61.0642 3.64008C62.1042 2.66008 63.3342 1.91008 64.7542 1.39008C66.1942 0.850078 67.7642 0.580078 69.4642 0.580078C71.4442 0.580078 73.2142 0.910078 74.7742 1.57008C76.3342 2.23008 77.6242 3.18008 78.6442 4.42008L74.8642 7.84008C74.1442 7.06008 73.3642 6.48008 72.5242 6.10008C71.7042 5.70008 70.7842 5.50008 69.7642 5.50008C68.8642 5.50008 68.0442 5.64008 67.3042 5.92008C66.5642 6.20008 65.9342 6.61008 65.4142 7.15008C64.8942 7.67008 64.4842 8.30008 64.1842 9.04008C63.9042 9.76008 63.7642 10.5801 63.7642 11.5001C63.7642 12.3801 63.9042 13.1901 64.1842 13.9301C64.4842 14.6701 64.8942 15.3101 65.4142 15.8501C65.9342 16.3701 66.5542 16.7801 67.2742 17.0801C68.0142 17.3601 68.8242 17.5001 69.7042 17.5001C70.5842 17.5001 71.4442 17.3601 72.2842 17.0801C73.1242 16.7801 73.9742 16.2801 74.8342 15.5801L78.1642 19.7501C76.9642 20.6101 75.5742 21.2701 73.9942 21.7301C72.4142 22.1901 70.8642 22.4201 69.3442 22.4201ZM72.9142 18.9701V11.0501H78.1642V19.7501L72.9142 18.9701Z" fill="#004288"/>
<path d="M81.9301 22.0001V1.00008H87.8701V22.0001H81.9301Z" fill="#004288"/>
<path d="M92.0961 22.0001V1.00008H96.9861L108.566 14.9801H106.256V1.00008H112.076V22.0001H107.186L95.6061 8.02008H97.9161V22.0001H92.0961Z" fill="#004288"/>
<path d="M113.746 22.0001L123.016 1.00008H128.866L138.166 22.0001H131.986L124.726 3.91008H127.066L119.806 22.0001H113.746ZM118.816 17.9201L120.346 13.5401H130.606L132.136 17.9201H118.816Z" fill="#004288"/>
<path d="M139.85 22.0001V1.00008H145.79V17.2901H155.81V22.0001H139.85Z" fill="#004288"/>
<path d="M167.941 22.0001V1.00008H176.131C177.971 1.00008 179.541 1.29008 180.841 1.87008C182.141 2.45008 183.141 3.29008 183.841 4.39008C184.541 5.49008 184.891 6.80008 184.891 8.32008C184.891 9.84008 184.541 11.1501 183.841 12.2501C183.141 13.3301 182.141 14.1701 180.841 14.7701C179.541 15.3501 177.971 15.6401 176.131 15.6401H169.591L170.941 14.2301V22.0001H167.941ZM170.941 14.5301L169.591 13.0301H176.041C177.961 13.0301 179.411 12.6201 180.391 11.8001C181.391 10.9801 181.891 9.82008 181.891 8.32008C181.891 6.82008 181.391 5.66008 180.391 4.84008C179.411 4.02008 177.961 3.61008 176.041 3.61008H169.591L170.941 2.11008V14.5301Z" fill="#004288"/>
<path d="M189.298 22.0001V1.00008H197.488C199.328 1.00008 200.898 1.29008 202.198 1.87008C203.498 2.45008 204.498 3.29008 205.198 4.39008C205.898 5.49008 206.248 6.80008 206.248 8.32008C206.248 9.84008 205.898 11.1501 205.198 12.2501C204.498 13.3301 203.498 14.1601 202.198 14.7401C200.898 15.3201 199.328 15.6101 197.488 15.6101H190.948L192.298 14.2301V22.0001H189.298ZM203.338 22.0001L197.998 14.3801H201.208L206.608 22.0001H203.338ZM192.298 14.5301L190.948 13.0601H197.398C199.318 13.0601 200.768 12.6501 201.748 11.8301C202.748 10.9901 203.248 9.82008 203.248 8.32008C203.248 6.82008 202.748 5.66008 201.748 4.84008C200.768 4.02008 199.318 3.61008 197.398 3.61008H190.948L192.298 2.11008V14.5301Z" fill="#004288"/>
<path d="M220.575 22.2401C218.975 22.2401 217.485 21.9701 216.105 21.4301C214.745 20.8901 213.565 20.1401 212.565 19.1801C211.565 18.2001 210.785 17.0601 210.225 15.7601C209.665 14.4601 209.385 13.0401 209.385 11.5001C209.385 9.96008 209.665 8.54008 210.225 7.24008C210.785 5.94008 211.565 4.81008 212.565 3.85008C213.565 2.87008 214.745 2.11008 216.105 1.57008C217.465 1.03008 218.955 0.760079 220.575 0.760079C222.175 0.760079 223.645 1.03008 224.985 1.57008C226.345 2.09008 227.525 2.84008 228.525 3.82008C229.545 4.78008 230.325 5.91008 230.865 7.21008C231.425 8.51008 231.705 9.94008 231.705 11.5001C231.705 13.0601 231.425 14.4901 230.865 15.7901C230.325 17.0901 229.545 18.2301 228.525 19.2101C227.525 20.1701 226.345 20.9201 224.985 21.4601C223.645 21.9801 222.175 22.2401 220.575 22.2401ZM220.575 19.5701C221.735 19.5701 222.805 19.3701 223.785 18.9701C224.785 18.5701 225.645 18.0101 226.365 17.2901C227.105 16.5501 227.675 15.6901 228.075 14.7101C228.495 13.7301 228.705 12.6601 228.705 11.5001C228.705 10.3401 228.495 9.27008 228.075 8.29008C227.675 7.31008 227.105 6.46008 226.365 5.74008C225.645 5.00008 224.785 4.43008 223.785 4.03008C222.805 3.63008 221.735 3.43008 220.575 3.43008C219.395 3.43008 218.305 3.63008 217.305 4.03008C216.325 4.43008 215.465 5.00008 214.725 5.74008C213.985 6.46008 213.405 7.31008 212.985 8.29008C212.585 9.27008 212.385 10.3401 212.385 11.5001C212.385 12.6601 212.585 13.7301 212.985 14.7101C213.405 15.6901 213.985 16.5501 214.725 17.2901C215.465 18.0101 216.325 18.5701 217.305 18.9701C218.305 19.3701 219.395 19.5701 220.575 19.5701Z" fill="#004288"/>
<path d="M236.291 22.0001V1.00008H238.751L248.171 16.8701H246.851L256.151 1.00008H258.611L258.641 22.0001H255.761L255.731 5.53008H256.421L248.141 19.4501H246.761L238.421 5.53008H239.171V22.0001H236.291Z" fill="#004288"/>
</svg>
