<svg width="259" height="23" viewBox="0 0 259 23" fill="none" xmlns="http://www.w3.org/2000/svg">
<rect x="5" y="5.2832" width="13" height="13" fill="#20BF6B"/>
<path d="M11.69 22.7033C10.01 22.7033 8.46002 22.4333 7.04002 21.8933C5.62002 21.3533 4.38002 20.5933 3.32002 19.6133C2.28002 18.6133 1.47002 17.4533 0.89002 16.1333C0.31002 14.8133 0.0200195 13.3633 0.0200195 11.7833C0.0200195 10.2033 0.31002 8.75328 0.89002 7.43328C1.47002 6.11328 2.28002 4.96328 3.32002 3.98328C4.38002 2.98328 5.62002 2.21328 7.04002 1.67328C8.46002 1.13328 10.01 0.863281 11.69 0.863281C13.39 0.863281 14.94 1.13328 16.34 1.67328C17.76 2.21328 18.99 2.98328 20.03 3.98328C21.07 4.96328 21.88 6.11328 22.46 7.43328C23.06 8.75328 23.36 10.2033 23.36 11.7833C23.36 13.3633 23.06 14.8233 22.46 16.1633C21.88 17.4833 21.07 18.6333 20.03 19.6133C18.99 20.5933 17.76 21.3533 16.34 21.8933C14.94 22.4333 13.39 22.7033 11.69 22.7033ZM11.69 17.7833C12.49 17.7833 13.23 17.6433 13.91 17.3633C14.61 17.0833 15.21 16.6833 15.71 16.1633C16.23 15.6233 16.63 14.9833 16.91 14.2433C17.21 13.5033 17.36 12.6833 17.36 11.7833C17.36 10.8633 17.21 10.0433 16.91 9.32328C16.63 8.58328 16.23 7.95328 15.71 7.43328C15.21 6.89328 14.61 6.48328 13.91 6.20328C13.23 5.92328 12.49 5.78328 11.69 5.78328C10.89 5.78328 10.14 5.92328 9.44002 6.20328C8.76002 6.48328 8.16002 6.89328 7.64002 7.43328C7.14002 7.95328 6.74002 8.58328 6.44002 9.32328C6.16002 10.0433 6.02002 10.8633 6.02002 11.7833C6.02002 12.6833 6.16002 13.5033 6.44002 14.2433C6.74002 14.9833 7.14002 15.6233 7.64002 16.1633C8.16002 16.6833 8.76002 17.0833 9.44002 17.3633C10.14 17.6433 10.89 17.7833 11.69 17.7833Z" fill="white"/>
<path d="M26.4711 22.2833V1.28328H36.0711C37.9911 1.28328 39.6411 1.59328 41.0211 2.21328C42.4211 2.83328 43.5011 3.73328 44.2611 4.91328C45.0211 6.07328 45.4011 7.45328 45.4011 9.05328C45.4011 10.6333 45.0211 12.0033 44.2611 13.1633C43.5011 14.3033 42.4211 15.1833 41.0211 15.8033C39.6411 16.4033 37.9911 16.7033 36.0711 16.7033H29.7711L32.4111 14.2133V22.2833H26.4711ZM39.4611 22.2833L34.2411 14.6333H40.5711L45.8211 22.2833H39.4611ZM32.4111 14.8433L29.7711 12.1133H35.7111C36.9511 12.1133 37.8711 11.8433 38.4711 11.3033C39.0911 10.7633 39.4011 10.0133 39.4011 9.05328C39.4011 8.07328 39.0911 7.31328 38.4711 6.77328C37.8711 6.23328 36.9511 5.96328 35.7111 5.96328H29.7711L32.4111 3.23328V14.8433Z" fill="white"/>
<path d="M48.6781 22.2833V1.28328H54.6181V22.2833H48.6781Z" fill="white"/>
<path d="M69.3442 22.7033C67.6842 22.7033 66.1442 22.4433 64.7242 21.9233C63.3042 21.3833 62.0742 20.6233 61.0342 19.6433C60.0142 18.6633 59.2142 17.5133 58.6342 16.1933C58.0542 14.8533 57.7642 13.3833 57.7642 11.7833C57.7642 10.1833 58.0542 8.72328 58.6342 7.40328C59.2142 6.06328 60.0242 4.90328 61.0642 3.92328C62.1042 2.94328 63.3342 2.19328 64.7542 1.67328C66.1942 1.13328 67.7642 0.863281 69.4642 0.863281C71.4442 0.863281 73.2142 1.19328 74.7742 1.85328C76.3342 2.51328 77.6242 3.46328 78.6442 4.70328L74.8642 8.12328C74.1442 7.34328 73.3642 6.76328 72.5242 6.38328C71.7042 5.98328 70.7842 5.78328 69.7642 5.78328C68.8642 5.78328 68.0442 5.92328 67.3042 6.20328C66.5642 6.48328 65.9342 6.89328 65.4142 7.43328C64.8942 7.95328 64.4842 8.58328 64.1842 9.32328C63.9042 10.0433 63.7642 10.8633 63.7642 11.7833C63.7642 12.6633 63.9042 13.4733 64.1842 14.2133C64.4842 14.9533 64.8942 15.5933 65.4142 16.1333C65.9342 16.6533 66.5542 17.0633 67.2742 17.3633C68.0142 17.6433 68.8242 17.7833 69.7042 17.7833C70.5842 17.7833 71.4442 17.6433 72.2842 17.3633C73.1242 17.0633 73.9742 16.5633 74.8342 15.8633L78.1642 20.0333C76.9642 20.8933 75.5742 21.5533 73.9942 22.0133C72.4142 22.4733 70.8642 22.7033 69.3442 22.7033ZM72.9142 19.2533V11.3333H78.1642V20.0333L72.9142 19.2533Z" fill="white"/>
<path d="M81.9301 22.2833V1.28328H87.8701V22.2833H81.9301Z" fill="white"/>
<path d="M92.0961 22.2833V1.28328H96.9861L108.566 15.2633H106.256V1.28328H112.076V22.2833H107.186L95.6061 8.30328H97.9161V22.2833H92.0961Z" fill="white"/>
<path d="M113.746 22.2833L123.016 1.28328H128.866L138.166 22.2833H131.986L124.726 4.19328H127.066L119.806 22.2833H113.746ZM118.816 18.2033L120.346 13.8233H130.606L132.136 18.2033H118.816Z" fill="white"/>
<path d="M139.85 22.2833V1.28328H145.79V17.5733H155.81V22.2833H139.85Z" fill="white"/>
<path d="M167.941 22.2833V1.28328H176.131C177.971 1.28328 179.541 1.57328 180.841 2.15328C182.141 2.73328 183.141 3.57328 183.841 4.67328C184.541 5.77328 184.891 7.08328 184.891 8.60328C184.891 10.1233 184.541 11.4333 183.841 12.5333C183.141 13.6133 182.141 14.4533 180.841 15.0533C179.541 15.6333 177.971 15.9233 176.131 15.9233H169.591L170.941 14.5133V22.2833H167.941ZM170.941 14.8133L169.591 13.3133H176.041C177.961 13.3133 179.411 12.9033 180.391 12.0833C181.391 11.2633 181.891 10.1033 181.891 8.60328C181.891 7.10328 181.391 5.94328 180.391 5.12328C179.411 4.30328 177.961 3.89328 176.041 3.89328H169.591L170.941 2.39328V14.8133Z" fill="white"/>
<path d="M189.298 22.2833V1.28328H197.488C199.328 1.28328 200.898 1.57328 202.198 2.15328C203.498 2.73328 204.498 3.57328 205.198 4.67328C205.898 5.77328 206.248 7.08328 206.248 8.60328C206.248 10.1233 205.898 11.4333 205.198 12.5333C204.498 13.6133 203.498 14.4433 202.198 15.0233C200.898 15.6033 199.328 15.8933 197.488 15.8933H190.948L192.298 14.5133V22.2833H189.298ZM203.338 22.2833L197.998 14.6633H201.208L206.608 22.2833H203.338ZM192.298 14.8133L190.948 13.3433H197.398C199.318 13.3433 200.768 12.9333 201.748 12.1133C202.748 11.2733 203.248 10.1033 203.248 8.60328C203.248 7.10328 202.748 5.94328 201.748 5.12328C200.768 4.30328 199.318 3.89328 197.398 3.89328H190.948L192.298 2.39328V14.8133Z" fill="white"/>
<path d="M220.575 22.5233C218.975 22.5233 217.485 22.2533 216.105 21.7133C214.745 21.1733 213.565 20.4233 212.565 19.4633C211.565 18.4833 210.785 17.3433 210.225 16.0433C209.665 14.7433 209.385 13.3233 209.385 11.7833C209.385 10.2433 209.665 8.82328 210.225 7.52328C210.785 6.22328 211.565 5.09328 212.565 4.13328C213.565 3.15328 214.745 2.39328 216.105 1.85328C217.465 1.31328 218.955 1.04328 220.575 1.04328C222.175 1.04328 223.645 1.31328 224.985 1.85328C226.345 2.37328 227.525 3.12328 228.525 4.10328C229.545 5.06328 230.325 6.19328 230.865 7.49328C231.425 8.79328 231.705 10.2233 231.705 11.7833C231.705 13.3433 231.425 14.7733 230.865 16.0733C230.325 17.3733 229.545 18.5133 228.525 19.4933C227.525 20.4533 226.345 21.2033 224.985 21.7433C223.645 22.2633 222.175 22.5233 220.575 22.5233ZM220.575 19.8533C221.735 19.8533 222.805 19.6533 223.785 19.2533C224.785 18.8533 225.645 18.2933 226.365 17.5733C227.105 16.8333 227.675 15.9733 228.075 14.9933C228.495 14.0133 228.705 12.9433 228.705 11.7833C228.705 10.6233 228.495 9.55328 228.075 8.57328C227.675 7.59328 227.105 6.74328 226.365 6.02328C225.645 5.28328 224.785 4.71328 223.785 4.31328C222.805 3.91328 221.735 3.71328 220.575 3.71328C219.395 3.71328 218.305 3.91328 217.305 4.31328C216.325 4.71328 215.465 5.28328 214.725 6.02328C213.985 6.74328 213.405 7.59328 212.985 8.57328C212.585 9.55328 212.385 10.6233 212.385 11.7833C212.385 12.9433 212.585 14.0133 212.985 14.9933C213.405 15.9733 213.985 16.8333 214.725 17.5733C215.465 18.2933 216.325 18.8533 217.305 19.2533C218.305 19.6533 219.395 19.8533 220.575 19.8533Z" fill="white"/>
<path d="M236.291 22.2833V1.28328H238.751L248.171 17.1533H246.851L256.151 1.28328H258.611L258.641 22.2833H255.761L255.731 5.81328H256.421L248.141 19.7333H246.761L238.421 5.81328H239.171V22.2833H236.291Z" fill="white"/>
</svg>
