<svg width="19" height="19" viewBox="0 0 19 19" fill="none" xmlns="http://www.w3.org/2000/svg">
<g clip-path="url(#clip0_1_627)">
<path d="M13.8392 10.4142L11.7696 12.4181C11.1734 12.0823 10.0314 11.3536 8.78955 10.1117C7.54755 8.8697 6.81058 7.71931 6.46935 7.11745L8.47252 5.08847L3.41435 0L0.922375 2.47545C-0.0239119 3.42174 -0.269181 4.86161 0.312101 6.05824C1.1991 7.88442 2.83553 10.6405 5.59496 13.3999C8.35438 16.1594 11.1105 17.7958 12.9367 18.6828C13.3694 18.893 13.8337 18.995 14.2952 18.995C15.1099 18.995 15.9153 18.6766 16.5194 18.0725L18.9998 15.5834L13.8392 10.4142ZM15.4699 17.0243C14.9704 17.5234 14.2129 17.6537 13.5846 17.3486C11.8608 16.5113 9.25733 14.9648 6.64373 12.3512C4.03013 9.73742 2.48343 7.13397 1.6463 5.41027C1.34101 4.78174 1.47162 4.02389 1.96941 3.52611L3.40768 2.09726L6.38469 5.09209L4.67824 6.82057L4.88423 7.28313C4.91771 7.35822 5.72702 9.14686 7.74078 11.1606C9.75584 13.1757 11.5294 13.9682 11.6039 14.0009L12.0601 14.2014L13.8216 12.4958L16.905 15.5843L15.4699 17.0243ZM11.3726 6.57356L16.4525 1.49365H13.608V0.010437H18.9845V5.38694H17.5012V2.54242L12.4213 7.62234L11.3726 6.57356Z" fill="#1F68A6"/>
</g>
<defs>
<clipPath id="clip0_1_627">
<rect width="19" height="19" fill="white"/>
</clipPath>
</defs>
</svg>
